HIERARCHY
ROOT hip
{
  OFFSET 0 0 0
  CHANNELS 6 Xposition Yposition Zposition Zrotation Yrotation Xrotation
  JOINT abdomen
  {
    OFFSET 0 20.6881 -0.73152
    CHANNELS 3 Zrotation Xrotation Yrotation
    JOINT chest
    {
      OFFSET 0 11.7043 -0.48768
      CHANNELS 3 Zrotation Xrotation Yrotation
      JOINT neck
      {
        OFFSET 0 22.1894 -2.19456
        CHANNELS 3 Zrotation Xrotation Yrotation
        JOINT head
        {
          OFFSET -0.24384 7.07133 1.2192
          CHANNELS 3 Zrotation Xrotation Yrotation
          JOINT leftEye
          {
            OFFSET 4.14528 8.04674 8.04672
            CHANNELS 3 Zrotation Xrotation Yrotation
            End Site
            {
              OFFSET 1 0 0
            }
          }
          JOINT rightEye
          {
            OFFSET -3.6576 8.04674 8.04672
            CHANNELS 3 Zrotation Xrotation Yrotation
            End Site
            {
              OFFSET 1 0 0
            }
          }
        }
      }
      JOINT rCollar
      {
        OFFSET -2.68224 19.2634 -4.8768
        CHANNELS 3 Zrotation Xrotation Yrotation
        JOINT rShldr
        {
          OFFSET -8.77824 -1.95073 1.46304
          CHANNELS 3 Zrotation Xrotation Yrotation
          JOINT rForeArm
          {
            OFFSET -28.1742 -1.7115 0.48768
            CHANNELS 3 Zrotation Xrotation Yrotation
            JOINT rHand
            {
              OFFSET -22.5879 0.773209 7.07136
              CHANNELS 3 Zrotation Xrotation Yrotation
              JOINT rThumb1
              {
                OFFSET -1.2192 -0.487915 3.41376
                CHANNELS 3 Zrotation Xrotation Yrotation
                JOINT rThumb2
                {
                  OFFSET -3.37035 -0.52449 3.41376
                  CHANNELS 3 Zrotation Xrotation Yrotation
                  End Site
                  {
                    OFFSET -1.78271 -1.18214 1.43049
                  }
                }
              }
              JOINT rIndex1
              {
                OFFSET -7.75947 0.938293 5.60832
                CHANNELS 3 Zrotation Xrotation Yrotation
                JOINT rIndex2
                {
                  OFFSET -2.54057 -0.884171 1.56538
                  CHANNELS 3 Zrotation Xrotation Yrotation
                  End Site
                  {
                    OFFSET -1.62519 -0.234802 1.16502
                  }
                }
              }
              JOINT rMid1
              {
                OFFSET -8.24714 1.18213 3.41376
                CHANNELS 3 Zrotation Xrotation Yrotation
                JOINT rMid2
                {
                  OFFSET -3.10165 -0.590103 1.0647
                  CHANNELS 3 Zrotation Xrotation Yrotation
                  End Site
                  {
                    OFFSET -2.48547 -0.328903 0.83742
                  }
                }
              }
              JOINT rRing1
              {
                OFFSET -8.82822 0.546677 1.51678
                CHANNELS 3 Zrotation Xrotation Yrotation
                JOINT rRing2
                {
                  OFFSET -2.60934 -0.819778 -0.0198488
                  CHANNELS 3 Zrotation Xrotation Yrotation
                  End Site
                  {
                    OFFSET -2.33842 -0.294052 0.168128
                  }
                }
              }
              JOINT rPinky1
              {
                OFFSET -8.27202 -0.0477905 -0.4584
                CHANNELS 3 Zrotation Xrotation Yrotation
                JOINT rPinky2
                {
                  OFFSET -1.82734 -0.647385 -0.700984
                  CHANNELS 3 Zrotation Xrotation Yrotation
                  End Site
                  {
                    OFFSET -1.69225 -0.51767 -0.607171
                  }
                }
              }
            }
          }
        }
      }
      JOINT lCollar
      {
        OFFSET 2.68224 19.2634 -4.8768
        CHANNELS 3 Zrotation Xrotation Yrotation
        JOINT lShldr
        {
          OFFSET 8.77824 -1.95073 1.46304
          CHANNELS 3 Zrotation Xrotation Yrotation
          JOINT lForeArm
          {
            OFFSET 28.1742 -1.7115 0.48768
            CHANNELS 3 Zrotation Xrotation Yrotation
            JOINT lHand
            {
              OFFSET 22.5879 0.773209 7.07136
              CHANNELS 3 Zrotation Xrotation Yrotation
              JOINT lThumb1
              {
                OFFSET 1.2192 -0.487915 3.41376
                CHANNELS 3 Zrotation Xrotation Yrotation
                JOINT lThumb2
                {
                  OFFSET 3.37035 -0.52449 3.41376
                  CHANNELS 3 Zrotation Xrotation Yrotation
                  End Site
                  {
                    OFFSET 1.78271 -1.18214 1.43049
                  }
                }
              }
              JOINT lIndex1
              {
                OFFSET 7.75947 0.938293 5.60832
                CHANNELS 3 Zrotation Xrotation Yrotation
                JOINT lIndex2
                {
                  OFFSET 2.54057 -0.884171 1.56538
                  CHANNELS 3 Zrotation Xrotation Yrotation
                  End Site
                  {
                    OFFSET 1.62519 -0.234802 1.16502
                  }
                }
              }
              JOINT lMid1
              {
                OFFSET 8.24714 1.18213 3.41376
                CHANNELS 3 Zrotation Xrotation Yrotation
                JOINT lMid2
                {
                  OFFSET 3.10165 -0.590103 1.0647
                  CHANNELS 3 Zrotation Xrotation Yrotation
                  End Site
                  {
                    OFFSET 2.48547 -0.328903 0.83742
                  }
                }
              }
              JOINT lRing1
              {
                OFFSET 8.82822 0.546677 1.51678
                CHANNELS 3 Zrotation Xrotation Yrotation
                JOINT lRing2
                {
                  OFFSET 2.60934 -0.819778 -0.0198488
                  CHANNELS 3 Zrotation Xrotation Yrotation
                  End Site
                  {
                    OFFSET 2.33842 -0.294052 0.168128
                  }
                }
              }
              JOINT lPinky1
              {
                OFFSET 8.27202 -0.0477905 -0.4584
                CHANNELS 3 Zrotation Xrotation Yrotation
                JOINT lPinky2
                {
                  OFFSET 1.82734 -0.647385 -0.700984
                  CHANNELS 3 Zrotation Xrotation Yrotation
                  End Site
                  {
                    OFFSET 1.69225 -0.51767 -0.607171
                  }
                }
              }
            }
          }
        }
      }
    }
  }
  JOINT rButtock
  {
    OFFSET -8.77824 4.35084 1.2192
    CHANNELS 3 Zrotation Xrotation Yrotation
    JOINT rThigh
    {
      OFFSET 0 -1.70687 -2.19456
      CHANNELS 3 Zrotation Xrotation Yrotation
      JOINT rShin
      {
        OFFSET 0 -36.8199 0.73152
        CHANNELS 3 Zrotation Xrotation Yrotation
        JOINT rFoot
        {
          OFFSET 0.73152 -45.1104 -5.12064
          CHANNELS 3 Zrotation Xrotation Yrotation
          End Site
          {
            OFFSET -1.1221 -3.69964 12.103
          }
        }
      }
    }
  }
  JOINT lButtock
  {
    OFFSET 8.77824 4.35084 1.2192
    CHANNELS 3 Zrotation Xrotation Yrotation
    JOINT lThigh
    {
      OFFSET 0 -1.70687 -2.19456
      CHANNELS 3 Zrotation Xrotation Yrotation
      JOINT lShin
      {
        OFFSET 0 -36.8199 0.73152
        CHANNELS 3 Zrotation Xrotation Yrotation
        JOINT lFoot
        {
          OFFSET -0.73152 -45.1104 -5.12064
          CHANNELS 3 Zrotation Xrotation Yrotation
          End Site
          {
            OFFSET 1.1221 -3.69964 12.103
          }
        }
      }
    }
  }
}
MOTION
Frames:	4
Frame Time:	0.00833333
-5.6092 84.2564 36.0404 0.0 0.0 0.0 -1.24153 -0.00398111 -0.0340793 -0.342498 -0.00249242 -0.0593279 2.73716e-14 -2.38542e-15 -4.22417e-16 8.21353e-14 -6.36111e-15 -1.24396e-15 -0.0 0.0 0.0 -0.0 0.0 0.0 1.38149e-14 3.92134e-17 9.93923e-17 2.90663e-13 1.03741e-15 -2.5842e-15 4.95118e-12 -1.4555e-12 -8.90555e-14 5.67567e-11 1.62449e-12 -7.69694e-13 1.33868e-10 3.63572e-13 -1.85426e-12 2.31189e-10 6.23389e-13 -3.206e-12 1.33876e-10 3.67752e-13 -1.86381e-12 7.73091 5.47488 0.417314 1.3387e-10 3.64571e-13 -1.85426e-12 2.90554 0.965183 0.102902 1.3388e-10 3.64074e-13 -1.85188e-12 10.2786 0.731801 0.0259123 1.33866e-10 3.62981e-13 -1.84472e-12 2.22167 -0.733487 -0.20892 1.37177e-14 4.07664e-17 -3.97569e-16 2.85588e-13 1.13059e-15 -3.97569e-15 4.96619e-12 1.51156e-12 -1.65389e-13 5.67608e-11 -1.32783e-12 -6.64736e-13 1.33906e-10 3.92362e-13 -1.84154e-12 2.31248e-10 6.80639e-13 -3.19407e-12 1.33899e-10 3.95979e-13 -1.84472e-12 -7.73091 5.47488 -0.417314 1.33905e-10 3.92898e-13 -1.8479e-12 -2.90554 0.965183 -0.102902 1.33895e-10 3.92898e-13 -1.8487e-12 -10.2786 0.731801 -0.0259123 1.33908e-10 3.92401e-13 -1.85426e-12 -2.22167 -0.733487 0.20892 -2.03217e-16 0.0 -3.88251e-19 -0.453625 -1.92099 -0.00953071 -0.00915717 -2.07857 -0.075566 -0.48768 3.99699 0.136686 2.03217e-16 0.0 3.88251e-19 -1.43707 -5.97118 0.129652 -0.00126568 5.258 -0.0454271 0.507598 0.710722 -0.0722476
-7.06308 84.4366 35.4557 -5.204 -2.9322 1.157 -0.557704 -0.206106 1.24437 -1.0025 -0.45816 0.259274 0.867237 1.50246 -0.630012 0.660797 -0.502998 -1.39231 -0.0 0.0 0.0 -0.0 0.0 0.0 -6.05272e-15 5.22753e-15 -1.58554e-14 23.563 6.55452 -4.31937 -6.4415 -3.56127 9.27062 0.0370886 4.27409 0.594662 2.54674e-10 -1.8878e-10 3.38092e-11 4.40104e-10 -3.24948e-10 5.60054e-11 2.5468e-10 -1.88776e-10 3.38018e-11 7.73091 5.47488 0.417314 2.54673e-10 -1.88777e-10 3.38102e-11 2.90554 0.965183 0.102902 2.54685e-10 -1.88779e-10 3.38101e-11 10.2786 0.731801 0.0259123 2.54672e-10 -1.8878e-10 3.3817e-11 2.22167 -0.733487 -0.20892 -6.06887e-15 5.22677e-15 -1.62266e-14 -23.2489 6.37849 2.21957 5.47748 -2.80396 -8.18543 -0.0136995 2.59684 -0.363609 2.49447e-10 2.3592e-10 7.95896e-11 4.31657e-10 4.07923e-10 1.36107e-10 2.49439e-10 2.35923e-10 7.9592e-11 -7.73091 5.47488 -0.417314 2.49446e-10 2.3592e-10 7.9587e-11 -2.90554 0.965183 -0.102902 2.49439e-10 2.3592e-10 7.95857e-11 -10.2786 0.731801 -0.0259123 2.49451e-10 2.3592e-10 7.95797e-11 -2.22167 -0.733487 0.20892 -2.03217e-16 0.0 -3.88251e-19 -0.588109 0.140698 -0.506659 -0.00523198 -2.07913 -0.0408583 -0.616107 -0.235634 -2.02003 2.03217e-16 0.0 3.88251e-19 0.738193 -4.19853 -2.30194 -0.0149032 5.50071 -0.0869079 -0.0627718 -3.27676 5.61216
-7.06197 84.4364 35.4547 -5.1975 -2.9341 1.1597 0.174377 -0.417902 2.59656 -1.69477 -0.940097 0.59635 1.81905 3.09106 -1.29778 1.33344 -1.03457 -2.86492 -0.0 0.0 0.0 -0.0 0.0 0.0 -2.75385e-14 1.05675e-14 -3.38245e-14 49.5708 13.3568 -9.07489 -12.0134 -7.01479 19.1833 -0.021215 8.79172 1.23452 3.88888e-10 -3.96321e-10 6.99752e-11 6.72163e-10 -6.82152e-10 1.15838e-10 3.88893e-10 -3.96317e-10 6.99702e-11 7.73091 5.47488 0.417314 3.88883e-10 -3.96316e-10 6.99774e-11 2.90554 0.965183 0.102902 3.88897e-10 -3.96318e-10 6.99744e-11 10.2786 0.731801 0.0259123 3.88887e-10 -3.96319e-10 6.99811e-11 2.22167 -0.733487 -0.20892 -2.74645e-14 1.05643e-14 -3.40605e-14 -48.3763 13.0906 4.65925 10.406 -5.57743 -16.9008 0.00779206 5.33923 -0.750137 3.76956e-10 4.92286e-10 1.65676e-10 6.52789e-10 8.51169e-10 2.83316e-10 3.76947e-10 4.92288e-10 1.65684e-10 -7.73091 5.47488 -0.417314 3.76955e-10 4.92285e-10 1.65677e-10 -2.90554 0.965183 -0.102902 3.7695e-10 4.92284e-10 1.65675e-10 -10.2786 0.731801 -0.0259123 3.76961e-10 4.92286e-10 1.65669e-10 -2.22167 -0.733487 0.20892 -2.03217e-16 0.0 -3.88251e-19 -0.692264 2.31957 -1.03277 -0.0010828 -2.07973 -0.00417653 -1.09867 -4.69724 -4.31365 2.03217e-16 0.0 3.88251e-19 3.20041 -2.32295 -4.86286 -0.0288884 5.75658 -0.130769 0.195151 -7.36954 11.7007
-7.06937 84.4377 35.4539 -5.2316 -2.931 1.1556 0.836981 -0.609158 3.80146 -2.30731 -1.36934 0.89671 2.70108 4.50519 -1.89524 1.9091 -1.50543 -4.17821 -0.0 0.0 0.0 -0.0 0.0 0.0 -4.5788e-14 1.56042e-14 -4.7765e-14 73.7729 19.2037 -13.646 -15.9783 -9.56667 28.1838 -0.160635 12.8167 1.8245 4.96285e-10 -5.67068e-10 1.05136e-10 8.57935e-10 -9.76092e-10 1.74428e-10 4.9629e-10 -5.67065e-10 1.05133e-10 7.73091 5.47488 0.417314 4.96277e-10 -5.67062e-10 1.05139e-10 2.90554 0.965183 0.102902 4.96293e-10 -5.67064e-10 1.05134e-10 10.2786 0.731801 0.0259123 4.96285e-10 -5.67066e-10 1.05141e-10 2.22167 -0.733487 -0.20892 -4.5642e-14 1.55988e-14 -4.78846e-14 -71.2982 19.0172 7.00135 14.0926 -7.72657 -24.7664 0.0585591 7.78926 -1.09986 4.8053e-10 7.06975e-10 2.42452e-10 8.32475e-10 1.22241e-09 4.14708e-10 4.8052e-10 7.06976e-10 2.42466e-10 -7.73091 5.47488 -0.417314 4.80529e-10 7.06973e-10 2.42457e-10 -2.90554 0.965183 -0.102902 4.80527e-10 7.06973e-10 2.42454e-10 -10.2786 0.731801 -0.0259123 4.80537e-10 7.06975e-10 2.42448e-10 -2.22167 -0.733487 0.20892 -2.03217e-16 0.0 -3.88251e-19 -0.749553 4.26261 -1.50509 0.00262045 -2.08026 0.0285573 -1.83422 -8.64784 -6.40587 2.03217e-16 0.0 3.88251e-19 5.53904 -0.658193 -7.14564 -0.0411182 5.98612 -0.169978 1.16716 -10.8019 17.2687
